<?xml version="1.0" encoding="UTF-8" standalone="no"?>
<!-- Created with Inkscape (http://www.inkscape.org/) -->

<svg
   width="128"
   height="128"
   viewBox="0 0 33.866666 33.866668"
   version="1.1"
   id="svg5"
   inkscape:version="1.1 (ce6663b3b7, 2021-05-25)"
   sodipodi:docname="nty_web_ui.svg"
   inkscape:export-filename="nty_web_ui.png"
   inkscape:export-xdpi="192"
   inkscape:export-ydpi="192"
   xmlns:inkscape="http://www.inkscape.org/namespaces/inkscape"
   xmlns:sodipodi="http://sodipodi.sourceforge.net/DTD/sodipodi-0.dtd"
   xmlns="http://www.w3.org/2000/svg"
   xmlns:svg="http://www.w3.org/2000/svg">
  <sodipodi:namedview
     id="namedview7"
     pagecolor="#ffffff"
     bordercolor="#666666"
     borderopacity="1.0"
     inkscape:pageshadow="2"
     inkscape:pageopacity="0.0"
     inkscape:pagecheckerboard="0"
     inkscape:document-units="mm"
     showgrid="false"
     inkscape:zoom="4.1424077"
     inkscape:cx="99.700471"
     inkscape:cy="58.299428"
     inkscape:window-width="1848"
     inkscape:window-height="1016"
     inkscape:window-x="72"
     inkscape:window-y="27"
     inkscape:window-maximized="1"
     inkscape:current-layer="layer1"
     units="px"
     width="128px"
     inkscape:snap-global="false" />
  <defs
     id="defs2" />
  <g
     inkscape:label="Layer 1"
     inkscape:groupmode="layer"
     id="layer1">
    <rect
       style="fill:#ff00ff;stroke:#ff00ff;stroke-width:0.264583;stroke-linecap:round;stroke-dasharray:0.529167, 0.264583, 0.132291, 0.264583"
       id="rect1435"
       width="32.818058"
       height="32.77602"
       x="0.52511454"
       y="0.50347239"
       ry="3.3460112" />
    <path
       style="fill:#ffcc00;stroke:#ffcc00;stroke-width:0.264583;stroke-linecap:butt;stroke-linejoin:miter;stroke-miterlimit:4;stroke-dasharray:none;stroke-opacity:1"
       d="M 2.6359346,25.353325 H 12.948425 L 11.316083,24.351519 V 14.008314 h 1.930403 l 4.001456,11.507495 h 3.006449 V 9.534451 L 21.136742,8.1795101 H 2.6157872 L 4.0188369,9.8761872 V 23.775531 Z"
       id="path39"
       sodipodi:nodetypes="ccccccccccccc" />
    <path
       style="fill:#ffcc00;stroke:#ffcc00;stroke-width:0.264582;stroke-linecap:butt;stroke-linejoin:miter;stroke-miterlimit:4;stroke-dasharray:none;stroke-opacity:1"
       d="m 22.66815,5.6311984 c 0,0 -0.275638,4.2728001 0,6.3993986 0.05049,0.389567 -0.01647,0.84279 0.302033,1.157949 0.258569,0.255851 0.740916,0.341173 1.151466,0.441944 0.55979,0.137403 1.155198,0.176046 1.746563,0.211473 0.60026,0.03596 1.810127,0 1.810127,0 v -0.878089 h -1.034357 c 0,0 -1.017575,0.03259 -1.386825,-0.136991 -0.385105,-0.176868 -0.485104,-0.508825 -0.584627,-0.789911 -0.448948,-1.267998 0,-3.8853429 0,-3.8853429 h 2.949113 V 7.2550221 H 24.647954 V 5.4480516 Z"
       id="path287"
       sodipodi:nodetypes="caaaacccaacccccc" />
    <path
       style="fill:#ffcc00;stroke:#ffcc00;stroke-width:0.264583;stroke-linecap:butt;stroke-linejoin:miter;stroke-miterlimit:4;stroke-dasharray:none;stroke-opacity:1"
       d="m 26.02377,10.073764 1.002967,-0.5966744 2.095652,1.2795984 0.190704,-1.5640103 1.469958,-0.00656 c 0,0 0.222571,3.6326823 -0.05457,5.4391643 -0.05721,0.37295 -0.0933,0.757602 -0.330947,1.107667 -0.170679,0.251421 -0.377133,0.525461 -0.76661,0.683863 -0.45795,0.186251 -1.083979,0.203363 -1.648287,0.232876 -0.68525,0.03584 -2.060913,-0.07031 -2.060913,-0.07031 l 0.102774,-0.770427 c 0,0 0.985607,0.04739 1.473632,0.01581 0.206131,-0.01335 0.43212,-0.02046 0.603136,-0.08601 0.400707,-0.153597 0.663333,-0.406377 0.843785,-0.663595 0.260239,-0.370944 0.260412,-0.793872 0.294069,-1.196679 0.05154,-0.616816 -0.142546,-1.850807 -0.142546,-1.850807 z"
       id="path493"
       sodipodi:nodetypes="cccccaaaaccaaaacc" />
    <rect
       style="fill:#ff0000;stroke:#ff0000;stroke-width:0.264583;stroke-linecap:round;stroke-miterlimit:4;stroke-dasharray:none"
       id="rect2590"
       width="29.661694"
       height="1.2110589"
       x="2.2057781"
       y="29.500782" />
    <rect
       style="fill:#ff0000;stroke:#ff0000;stroke-width:0.264583;stroke-linecap:round;stroke-miterlimit:4;stroke-dasharray:none"
       id="rect2590-3"
       width="29.661694"
       height="1.2110589"
       x="2.1686101"
       y="3.3316958" />
  </g>
</svg>
